inDegrees=no
num_controls=7
num_derivatives=13
num_iterations=133
num_multipliers=7
num_parameters=0
num_slacks=7
num_states=26
objective=6.165594
objective_accelerations=0.407696
objective_balance=0.032760
objective_effort=0.432047
objective_height=5.224458
objective_ligament=0.068633
solver_duration=1161.582551
status=Solve_Succeeded
success=true
DataType=double
version=3
OpenSimVersion=4.4-2022-07-23-0e9fedc
endheader
time	/jointset/ground_pelvis/pelvis_tilt/value	/jointset/ground_pelvis/pelvis_tx/value	/jointset/ground_pelvis/pelvis_ty/value	/jointset/hip_r/hip_flexion_r/value	/jointset/hip_r/hip_adduction_r/value	/jointset/hip_r/hip_rotation_r/value	/jointset/back/lumbar_extension/value	/jointset/patellofemoral_r/patellar_flexion_r/value	/jointset/knee_r/knee_flexion_r/value	/jointset/knee_r/knee_adduction_r/value	/jointset/knee_r/knee_rotation_r/value	/jointset/ankle_r/ankle_angle_r/value	/jointset/subtalar_r/subtalar_angle_r/value	/jointset/ground_pelvis/pelvis_tilt/speed	/jointset/ground_pelvis/pelvis_tx/speed	/jointset/ground_pelvis/pelvis_ty/speed	/jointset/hip_r/hip_flexion_r/speed	/jointset/hip_r/hip_adduction_r/speed	/jointset/hip_r/hip_rotation_r/speed	/jointset/back/lumbar_extension/speed	/jointset/patellofemoral_r/patellar_flexion_r/speed	/jointset/knee_r/knee_flexion_r/speed	/jointset/knee_r/knee_adduction_r/speed	/jointset/knee_r/knee_rotation_r/speed	/jointset/ankle_r/ankle_angle_r/speed	/jointset/subtalar_r/subtalar_angle_r/speed	/forceset/tau_hip_flexion_r	/forceset/tau_hip_adduction_r	/forceset/tau_hip_rotation_r	/forceset/tau_knee_flexion_r	/forceset/tau_ankle_angle_r	/forceset/tau_subtalar_angle_r	/forceset/tau_lumbar_extension	lambda_cid13_p0	lambda_cid14_p0	lambda_cid14_p1	lambda_cid14_p2	lambda_cid14_p3	lambda_cid14_p4	lambda_cid14_p5	/jointset/ground_pelvis/pelvis_tilt/accel	/jointset/ground_pelvis/pelvis_tx/accel	/jointset/ground_pelvis/pelvis_ty/accel	/jointset/hip_r/hip_flexion_r/accel	/jointset/hip_r/hip_adduction_r/accel	/jointset/hip_r/hip_rotation_r/accel	/jointset/back/lumbar_extension/accel	/jointset/patellofemoral_r/patellar_flexion_r/accel	/jointset/knee_r/knee_flexion_r/accel	/jointset/knee_r/knee_adduction_r/accel	/jointset/knee_r/knee_rotation_r/accel	/jointset/ankle_r/ankle_angle_r/accel	/jointset/subtalar_r/subtalar_angle_r/accel	gamma_cid13_p0	gamma_cid14_p0	gamma_cid14_p1	gamma_cid14_p2	gamma_cid14_p3	gamma_cid14_p4	gamma_cid14_p5
0.5	-0.09950052205904746	0.05086845396829596	0.8633942770971313	0.6954359631148168	-0.2302529653219469	-0.1331408626682689	-0.3162743870223677	0.686914175130026	0.6869141751300253	0.04196330342089392	0.1745266639275427	0.2617189326690969	0.05590935058037545	-0.264701780442074	-0.09125569519588302	-0.3277547389104194	1.413738371913886	-0.007988279753733193	0.257966477465868	-0.6030324564050931	1.670287636135428	1.670287636135504	-0.2792975488435411	-1.521689641342518e-05	0.6109026550262666	0.1632200507035164	-0.07523910097034246	-0.01384890816577912	0.008179839934209777	-0.3401645701351725	0.06699522679860193	-0.01451143139606368	0.1350517290798477	-32.07523163725492	-20.87549699584084	-6.371227800012842	-2.62062689407148	2.910603189400411	-670.0891538212833	55.71575285073556	0.08392387691852554	0.291435269230875	-0.3517139564409533	-0.8755790495804864	-0.05139060650274654	-0.5500499946192612	1.301834825056069	-1.105311206501511	-1.105311206501511	0.3843357780868065	-0.0006973385868089431	-0.4413755320961959	-0.05458014205588012	-1.14593978556948e-07	-1.618014720871919e-07	5.654692132698991e-07	-1.272756150803894e-06	3.908118410115062e-08	-2.163357243921507e-07	8.734111146311386e-07
0.51	-0.102142908151062	0.04997058580463266	0.8600998672812049	0.7095273419469688	-0.2303361907134555	-0.130587658797048	-0.3222388999136545	0.7035592633306955	0.7035592633306994	0.03919192902609343	0.1745264847205338	0.267804746450405	0.05753741888015836	-0.2637389342899248	-0.08830804659559451	-0.3310534486382253	1.404342142212366	-0.008659876707933774	0.2526787422886291	-0.5897916132582502	1.658493463942071	1.658493463942159	-0.2749446696743832	-2.311376676247663e-05	0.6061747173158978	0.1623610338677071	-0.08051719273723361	-0.01223109793398162	0.008837792322392233	-0.3429752034352368	0.0627124890775862	-0.01375215140717354	0.1399007928253228	-31.12538609997722	-22.38464957240098	-6.420889638969072	-2.481150982268285	3.503158644321927	-673.2646557414669	55.64095639941941	0.1079273245510004	0.2979222643013227	-0.307926780966149	-1.000950450109248	-0.07567260110968899	-0.5176576318905777	1.346985348585618	-1.251929183660603	-1.251929183658671	0.4656714812482607	-0.001431387530420314	-0.5013202396502404	-0.1065157412202618	-9.93357371246552e-08	-1.276699466475184e-07	5.89769869268392e-07	-1.014810438323729e-06	1.553715813253314e-08	-1.782001979630495e-07	7.743616309876756e-07
0.52	-0.1047745733135147	0.04910249264874695	0.8567746749079975	0.7235188973781642	-0.2304262577467504	-0.1280872367481208	-0.3280686491156581	0.7200793180178581	0.7200793180178616	0.03646506492197132	0.1745261074395377	0.2738407173847804	0.059155906354208	-0.2625575945302763	-0.08530069364036318	-0.3339112503665956	1.393773691723981	-0.009356608111383533	0.2474101130068229	-0.5760797185479203	1.645280933432406	1.645280933432507	-0.2703954907085102	-5.483168796639702e-05	0.6009340856398085	0.1613038855568257	-0.08579528450419203	-0.01061328770216278	0.009495744710280134	-0.3457858367353038	0.05842975135658297	-0.01299287141824073	0.1447498565707308	-30.16659360421933	-23.89803665210361	-6.467742868543402	-2.346178605900089	4.08034385286905	-676.5154025796124	55.63257812045828	0.1276225984183399	0.3033761402194179	-0.2635323565538611	-1.110023206953386	-0.05641749635263542	-0.5462288155326832	1.396045137753447	-1.388982869762786	-1.388982869762768	0.4235957374298815	-0.005461548757797278	-0.5439143252402614	-0.09420643707029795	-7.727924449892919e-08	-5.963274582865842e-08	7.33360509715286e-07	-5.169624497898229e-07	-4.366411734068246e-08	-9.73289075104618e-08	6.47260727235137e-07
0.53	-0.1073934138034085	0.04826472740926251	0.8534231303401784	0.7373991775136337	-0.2305230574664567	-0.125640648114075	-0.3337589869997056	0.7364603589054568	0.736460358905481	0.03378320807413756	0.174525939011469	0.2798218944677131	0.06076336170494583	-0.2611723191991245	-0.08224567342706018	-0.3363204178233343	1.38209004171604	-0.01001174316673429	0.2419471245457495	-0.5619252298352622	1.630699231858157	1.630699231858274	-0.265914761827849	-8.173577798390423e-07	0.59521802272284	0.1601457703901742	-0.09092161331265841	-0.009156075168016401	0.01017933240475061	-0.3487608678472953	0.05431925888615886	-0.01231992254496636	0.149464366847402	-29.20159040530489	-25.36495697650227	-6.548457099376049	-2.200663655766337	4.662412491093003	-679.8073103594509	55.61143320725596	0.1497047439617983	0.3075521342600719	-0.2180331043935309	-1.226382888483847	-0.07129919358472057	-0.5404920987906529	1.434545001954383	-1.526952496735708	-1.526952496733445	0.4695806980825812	0.007505070150827882	-0.5979689960970012	-0.1327291758046604	-5.225302669698593e-08	2.145196841213165e-08	9.377741687332964e-07	7.519955437764202e-08	-1.178187169308757e-07	-6.148284091540863e-09	5.369500249660309e-07
0.54	-0.1099972565912823	0.04745770980638594	0.8500498092649601	0.7511568517508708	-0.2306266560733903	-0.1232475210121275	-0.3393059011438425	0.7526887450382218	0.7526887450382643	0.03114801236205413	0.1745256451559383	0.2857434075772413	0.06235801288014931	-0.2595580541280653	-0.07915116631878705	-0.3382665518463764	1.369252512077313	-0.01071638556045032	0.2367178065888488	-0.5473949705653099	1.614749982464719	1.614749982464851	-0.2610632635592676	-7.991717783163364e-05	0.5890012909589979	0.1587430504498405	-0.09604794212117646	-0.007698862633825934	0.01086292009894691	-0.351735898959293	0.05020876641574711	-0.01164697367163912	0.1541788771240183	-28.23106504725674	-26.83752103955167	-6.628074684593447	-2.057704643230514	5.240114735586403	-683.1910270682081	55.62533958356495	0.1734205463997536	0.3112735192134106	-0.1709256698145549	-1.340799133110785	-0.06631896402577231	-0.4994947146981473	1.471199249212212	-1.662492433600581	-1.662492433600571	0.4977496150139719	-0.03208437880547248	-0.6440480946150088	-0.1431273918067698	-2.394115550858951e-08	1.169722294176105e-07	1.209481380212968e-06	7.717089800971304e-07	-2.085174197994275e-07	9.643840984332341e-08	4.452157158275314e-07
0.55	-0.1125840029759127	0.04668181270744689	0.8466593487865637	0.7647807687660386	-0.23073697515893	-0.1209081103607708	-0.3447055894508367	0.7687510076250699	0.7687510076250968	0.02856044107165329	0.1745252469870879	0.2916005206827504	0.06393830518029676	-0.2577586943749485	-0.07602231762457606	-0.3397456064593172	1.355346719562172	-0.01135262446926279	0.2311891199973084	-0.5324895905462612	1.597482432759153	1.597482432759197	-0.2564078354586791	-1.434953288568218e-05	0.5823453500664391	0.1572796033797038	-0.1008953271149996	-0.00646502605793763	0.01147390461043005	-0.3550339183543539	0.04659183747186287	-0.0109537450142201	0.1586733316019768	-27.25603131823834	-28.15064285275335	-6.665923979197808	-1.927166527487538	5.703183289769365	-686.581830983769	55.75254563077512	0.1880851967980242	0.3145293231848643	-0.1243742720754618	-1.443076832008871	-0.06275899648136862	-0.5757881209681646	1.508172421330769	-1.791899860790208	-1.791899860803305	0.4561511213814423	0.02392048019960451	-0.6878021055513327	-0.1529753479205058	-5.418101249562295e-09	1.765762179784681e-07	1.375797128555643e-06	1.202309701633307e-06	-2.649816637253217e-07	1.594787473025111e-07	4.027124701716379e-07
